<?xml version="1.0" encoding="UTF-8" standalone="no"?>
<svg
   version="1.1"
   id="svg78"
   width="2917.3333"
   height="613.33331"
   viewBox="0 0 2917.3333 613.33331"
   sodipodi:docname="fh2_banner_black.svg"
   inkscape:version="1.1.2 (0a00cf5339, 2022-02-04, custom)"
   xmlns:inkscape="http://www.inkscape.org/namespaces/inkscape"
   xmlns:sodipodi="http://sodipodi.sourceforge.net/DTD/sodipodi-0.dtd"
   xmlns="http://www.w3.org/2000/svg"
   xmlns:svg="http://www.w3.org/2000/svg"
   xmlns:rdf="http://www.w3.org/1999/02/22-rdf-syntax-ns#"
   xmlns:cc="http://creativecommons.org/ns#"
   xmlns:dc="http://purl.org/dc/elements/1.1/">
  <metadata
     id="metadata84">
    <rdf:RDF>
      <cc:Work
         rdf:about="">
        <dc:format>image/svg+xml</dc:format>
        <dc:type
           rdf:resource="http://purl.org/dc/dcmitype/StillImage" />
      </cc:Work>
    </rdf:RDF>
  </metadata>
  <defs
     id="defs82" />
  <sodipodi:namedview
     pagecolor="#ffffff"
     bordercolor="#666666"
     borderopacity="1"
     objecttolerance="10"
     gridtolerance="10"
     guidetolerance="10"
     inkscape:pageopacity="0"
     inkscape:pageshadow="2"
     inkscape:window-width="1920"
     inkscape:window-height="1051"
     id="namedview80"
     showgrid="false"
     fit-margin-top="0"
     fit-margin-left="0"
     fit-margin-right="0"
     fit-margin-bottom="0"
     inkscape:zoom="0.29547532"
     inkscape:cx="964.54755"
     inkscape:cy="-296.13302"
     inkscape:window-x="0"
     inkscape:window-y="29"
     inkscape:window-maximized="1"
     inkscape:current-layer="g96"
     inkscape:document-rotation="0"
     inkscape:pagecheckerboard="true" />
  <g
     inkscape:groupmode="layer"
     inkscape:label="Image"
     id="g86"
     transform="translate(266.43472,177.82249)">
    <g
       id="g96"
       transform="translate(-266.43472,-177.82249)">
      <path
         style="fill:#b10101;stroke-width:1.33333"
         d="M 2584,512.32994 V 411.32656 l 98.6666,-98.65991 98.6667,-98.6599 V 168.3367 122.66666 H 2750.6666 2720 v 40.66667 40.66666 h -68 -68 V 151.65941 99.318836 l 45.6738,-45.659418 45.6738,-45.6594183 h 75.319 75.3191 l 45.6737,45.6594183 45.6739,45.659418 v 74.010624 74.01062 l -98.6667,98.65991 -98.6666,98.6599 v 27.00339 27.00337 h 98.6666 98.6667 v 57.33333 57.33333 H 2750.6666 2584 Z"
         id="path100" />
      <path
         style="fill:#000000;fill-opacity:1;stroke-width:1.33333"
         d="m 2074.984,562.99998 0.3493,-50.33333 19,-0.36995 19,-0.36993 v 20.0366 20.03661 h 20 20 v -20 -20 H 2172 h 18.6666 v 50.66667 50.66666 H 2172 2153.3333 v -19.33333 -19.33334 h -20 -20 v 19.33334 19.33333 h -19.3493 -19.3495 z m 131.6826,-0.34881 v -50.68214 l 52.3334,0.3488 52.3333,0.34882 0.3493,50.33333 0.3495,50.33333 h -52.6828 -52.6827 z M 2272,563.33331 v -30 h -12.6667 -12.6667 v 30 30 H 2259.3333 2272 Z m 54.6666,-0.68098 v -50.68098 l 57,0.34764 57,0.34766 0.3579,31 0.358,30.99999 h -37.358 -37.3579 v 19.33334 19.33333 h -20 -20 z M 2408,543.33331 v -10 h -20.6667 -20.6667 v 10 10 H 2387.3333 2408 Z m 44.3173,19.66667 0.3493,-50.33333 H 2502 l 49.8965,-0.0376 0.019,10.51326 0.057,10.16295 -31.2497,0.0276 h -31.3895 v 10 10 h 31.3895 l 6.1446,0.1455 0.136,9.97876 -0.043,10.40535 -6.6272,0.49496 -31,0.35791 v 7.30876 7.30876 H 2520.6666 2552 v 12 12 h -50.016 -50.0162 z m -2101.99526,-68.55917 -11.67798,-1.19996 -12.4204,-3.1507 -12.42038,-3.15069 -10.28887,-4.28327 -10.28887,-4.28326 -9.61277,-6.28829 -9.61277,-6.2883 -8.339,-8.43538 -8.33902,-8.43539 -4.71886,-7.10928 -4.71887,-7.10927 -3.82237,-7.70402 -3.82236,-7.70403 -2.76852,-8.64949 -2.76851,-8.6495 -1.32444,-9.33333 -1.32443,-9.33333 -1.52073,-38.66667 -1.52073,-38.66666 0.76213,-87.33333 0.76215,-87.33333 1.4015,-14.66667 1.40151,-14.66666 1.46936,-7.333337 1.46937,-7.333333 3.93651,-10.278073 3.93652,-10.278073 6.75675,-10.388593 6.75674,-10.388593 9.62638,-9.333333 9.62637,-9.333333 10.61963,-6.362185 10.61961,-6.362184 12.78313,-4.568868 12.78314,-4.5688676 11.80518,-2.3653417 11.80519,-2.36534175 H 372.66666 398 l 11.61308,2.32934325 11.61306,2.3293433 10.38694,3.4702116 10.38691,3.4702119 8,3.987381 8,3.987382 8.03364,5.696299 8.03364,5.696301 8.91907,9.454681 8.91907,9.454683 6.02926,10.299805 6.02927,10.299805 3.28891,10.058669 3.2889,10.05867 1.38654,8 1.38654,8 1.33067,22 1.33065,22 -9.7e-4,96.66666 -9.9e-4,96.66666 -1.37124,22.63552 -1.37124,22.63552 -2.05596,10.03115 -2.05597,10.03114 -3.97772,9.97844 -3.97773,9.97843 -7.20366,10.82643 -7.20365,10.82642 -8.55461,8.00243 -8.5546,8.00241 -9.82391,6.11023 -9.82391,6.11024 -10.21345,4.07901 -10.21345,4.07903 -11.11988,2.61313 -11.11988,2.61312 -13.80793,1.39035 -13.80795,1.39033 -8.85872,-0.1796 L 362,495.64078 Z m 32.1888,-83.28175 3.10418,-2.17426 1.91644,-4.5867 1.91644,-4.58669 1.23716,-16.90572 1.23715,-16.9057 -0.007,-122.66667 -0.007,-122.66666 -1.22794,-13.61589 -1.22793,-13.61589 -2.14905,-4.155811 -2.14907,-4.155812 -4.53396,-1.894964 -4.53528,-1.894963 h -2.84132 -2.84132 l -4.71479,2.237313 -4.71478,2.237314 -2.82006,6.09602 -2.82005,6.096019 V 247.33332 396.66665 l 1.69881,5.59517 1.6988,5.59518 3.481,2.73816 3.48102,2.73816 h 6.85684 6.85685 z m 592.23659,83.48093 -8.58591,-1.20037 -9.35666,-2.842 -9.35668,-2.842 -9.39076,-4.72023 -9.39076,-4.72021 -6,-4.0758 -6,-4.0758 -9.15271,-8.74846 -9.15271,-8.74847 -5.3463,-7.83748 -5.34631,-7.83748 -4.50972,-9.76072 -4.50973,-9.76072 -2.5901,-11.06847 -2.59008,-11.06846 -1.40117,-17.93319 -1.40117,-17.9332 0.012,-107.40013 0.012,-107.40014 1.34257,-18.66666 1.34257,-18.66667 1.9932,-12.406894 1.9932,-12.406892 2.63698,-7.502647 2.63696,-7.502646 4.34889,-7.384592 4.34888,-7.384593 11.33333,-11.496177 11.33334,-11.496177 8,-5.360544 8,-5.360542 8,-4.025821 8,-4.025821 L 956.80364,7.5739474 967.60671,4.1679106 981.64084,2.0839553 995.67556,0 l 14.49554,0.00375597 14.4956,0.00375596 12,1.46474577 12,1.4647457 12.0983,3.0617589 12.0984,3.0617591 10.0106,4.1674386 10.0107,4.167439 10.5576,6.857449 10.5577,6.857451 11.3579,11.444849 11.358,11.44485 4.8438,9.333333 4.8438,9.333333 2.8406,9.277588 2.8406,9.277587 1.9418,12.067401 1.9419,12.0674 1.3372,21.98834 1.3372,21.98835 0.012,13 0.012,13 h -62.6667 -62.6666 v -35.70164 -35.70165 l -1.3793,-11.29836 -1.3794,-11.29835 -2.4082,-3.333333 -2.4082,-3.333334 -5.2756,-1.865762 -5.2755,-1.865763 -4.7876,0.898146 -4.7875,0.898146 -3.3948,3.394805 -3.39482,3.394807 -1.63623,6.239477 -1.63623,6.239481 -0.54268,133.99999 -0.54268,134 1.47279,15.23405 1.47279,15.23405 2.13129,4.49135 2.13127,4.49134 3.754,1.94127 3.754,1.94127 h 6.1324 6.1324 l 4.0507,-2.09467 4.0506,-2.09467 2.4671,-5.57734 2.4672,-5.57736 1.416,-11.293 1.416,-11.293 v -36.36832 -36.3683 h -12.6881 -12.6881 l 0.3548,-36.33334 0.3548,-36.33333 H 1085.3333 1158 l 0.34,127.66666 0.3401,127.66666 h -39.7134 -39.7133 l -5.327,-16.15654 -5.3269,-16.15653 -6.9807,9.38758 -6.9807,9.38759 -8.319,6.29591 -8.3191,6.29591 -6.6667,3.07687 -6.6666,3.07687 -8,2.07737 -8,2.07736 -12.66671,0.57233 -12.66667,0.57234 z M 1322,495.10631 l -5.3333,-0.4454 -12.6667,-2.1706 -12.6667,-2.17058 -10,-3.31124 -10,-3.31123 -11.4104,-5.8513 -11.4105,-5.85131 -8.8938,-7.33599 -8.8937,-7.33598 -6.6735,-8.32802 -6.6734,-8.32801 -6.6278,-13.33333 -6.6279,-13.33334 -1.9947,-8 -1.9947,-8 -1.5733,-13.33333 -1.5733,-13.33333 -0.6156,-104.25144 -0.6156,-104.25143 1.4522,-27.0819 1.4522,-27.08189 1.4038,-8.666664 1.4039,-8.666666 3.7484,-10.925217 3.7485,-10.925217 6.3773,-10.23202 6.3774,-10.232021 8.0775,-8.634914 8.0775,-8.634916 8.2718,-5.90257 8.2717,-5.90257 11.5169,-5.397022 11.517,-5.397022 12.2744,-3.1064188 L 1302,2.9370034 1314,1.4722577 1326,0.00751193 1339.3683,0.00375597 1352.7367,0 l 11.2982,1.4036903 11.2984,1.4036904 10.6667,2.7090656 10.6667,2.7090658 10.2781,3.9628479 10.278,3.962847 10.0573,6.565459 10.0572,6.565457 6.1762,5.69227 6.176,5.692272 5.8238,7.567978 5.824,7.56798 5.2595,9.765353 5.2594,9.765354 3.3642,12 3.3642,12 1.4604,15.33333 1.4604,15.33334 0.7715,69.34221 0.7715,69.34221 -7.8576,3.16526 -7.8575,3.16527 -8.2548,4.51388 -8.2549,4.51388 -0.6979,5.64531 -0.698,5.6453 -1.3888,30.66667 -1.3886,30.66666 0.013,3.66667 0.013,3.66667 h -21.0237 -21.0236 l -29.1256,42.11853 -29.1255,42.11852 -1.1204,22.21481 -1.1202,22.2148 -0.064,1.66666 -0.064,1.66667 -8.3334,-0.22413 -8.3333,-0.22415 -5.3333,-0.44539 z m 27.968,-84.95306 3.18,-3.18007 1.7593,-5.81993 1.7594,-5.81993 V 246.66666 97.999996 l -2.3972,-6.211697 -2.3971,-6.211698 -4.7787,-2.267576 -4.7785,-2.267577 -4.632,0.751666 -4.6319,0.751666 -3.3037,2.16465 -3.3037,2.164649 -1.9547,4.678359 -1.9548,4.678358 -1.2223,13.551264 -1.2223,13.55127 v 121.33333 121.33333 l 1.1977,17.3468 1.1977,17.34679 1.4904,3.98654 1.4904,3.98653 2.9315,2.30368 2.9315,2.30369 7.7274,0.0296 7.7272,0.0296 3.1801,-3.18006 z M 0,247.33332 V 9.333333 H 104.66667 209.33333 V 57.999998 106.66666 H 166.66666 124 v 44 44 h 38 38 v 46 46 h -38 -38 v 99.33333 99.33332 H 61.999999 0 Z m 555.99999,0 V 9.333333 l 39.66667,0.051996 39.66667,0.051997 45.33333,1.208968 45.33333,1.208968 13.33333,1.491312 13.33334,1.491312 9.33333,2.035901 9.33333,2.035901 10,4.835946 10,4.835946 10.8368,10.78411 10.83682,10.784111 5.38348,11.258431 5.38348,11.258432 2.76541,11.333333 2.76541,11.333333 1.51268,14 1.51268,14 -0.74013,27.33333 -0.74013,27.33333 -2.19212,9.88538 -2.19212,9.88537 -2.61059,6.97741 -2.61059,6.97743 -5.37597,6.10741 -5.37596,6.10741 -9.57957,4.70479 -9.57958,4.70477 -11.16878,2.21531 -11.16879,2.21529 12.11591,4.21148 12.1159,4.2115 7.71955,4.73745 7.71955,4.73745 6.40822,7.82744 6.40822,7.82744 3.95106,8.24499 3.95106,8.24499 1.27298,13.08834 1.27299,13.08835 0.0344,85.66666 0.0344,85.66666 h -58 -58 l -0.0107,-90.99999 -0.0107,-91 -1.40135,-8.66666 -1.40136,-8.66667 -2.29236,-4 -2.29234,-4 -4.88106,-2.40405 -4.88105,-2.40404 -9.41517,-0.78934 -9.41516,-0.78933 v 106.86004 106.86004 h -62 -62 V 247.33332 Z m 148.78132,-54.78571 5.21868,-2.54762 2.66667,-5.33333 2.66667,-5.33333 0.45308,-31.41282 0.45308,-31.41281 -1.57255,-5.83998 -1.57253,-5.83998 -4.29442,-4.29441 -4.29441,-4.294407 -5.25279,-1.346435 -5.2528,-1.346433 -7,-0.898147 -7,-0.898146 v 52.300458 52.30045 l 9.78132,-0.62772 9.78134,-0.62773 z m 1453.33239,263.11904 -2.3272,-29.66667 -0.8932,-0.80058 -0.8933,-0.80058 -54.6667,-4.29477 -54.6667,-4.29477 -7.6666,-0.76126 -7.6667,-0.76125 V 359.23323 304.1797 l 2.3333,-0.67552 2.3334,-0.67552 93.3333,-20.17226 93.3333,-20.17225 5,-1.10035 5,-1.10036 v 13.19162 13.1916 H 2192 2153.3333 v 51.33333 51.33333 H 2198.6666 2244 v 48 47.99999 h -41.7796 -41.7796 z m 115.2196,-73.68342 V 278.63314 l 9.2368,4.65158 9.2368,4.65159 6.2852,3.98589 6.2851,3.98588 8.8113,3.04596 8.8115,3.04595 16.6666,-0.13537 16.6667,-0.13536 8.6667,-2.68294 8.6666,-2.68293 2.3334,-0.99101 2.3333,-0.99103 v 95.47598 95.47598 h -52 -52 z m 138.3397,6.6102 -28.788,-96.73988 5.8228,-5.36719 5.8227,-5.36718 1.5051,-4.56019 1.5049,-4.5602 2.8964,-0.5906 2.8964,-0.5906 21.1871,-3.52772 21.187,-3.52771 16.1463,-3.93958 16.1463,-3.93959 6.6666,-3.08573 6.6667,-3.08574 5.7495,-5.85577 5.7493,-5.85576 3.7608,-8 3.7607,-8 1.6356,-7.05301 1.6356,-7.05301 -0.037,-11.88163 -0.037,-11.88161 -1.5969,-7.73204 -1.5968,-7.73203 -3.9604,-10 -3.9604,-10 -6.827,-13.33333 -6.8269,-13.33333 -6.724,-6.74048 -6.7239,-6.74048 -6.359,-1.77334 -6.3591,-1.77334 -8.6409,0.69362 -8.6415,0.69361 V 57.84646 9.333333 h 52 52 V 247.33332 485.33331 h -54.4361 -54.436 z m -502.0428,16.3429 -16.3698,-1.30175 0.3698,-18.15062 0.3698,-18.15064 10.641,-1.33333 10.6411,-1.33334 2.6923,-18.65918 2.6922,-18.65919 4,-0.84972 4,-0.84973 2.3334,-0.15776 2.3333,-0.15775 v 40.66667 40.66666 l -3.6667,-0.21429 -3.6666,-0.21428 z m -38.9636,-119.04989 -35.3333,-1.75746 -13,-1.54808 -13,-1.54807 V 193.84974 106.66666 H 1744.6666 1680 v 77.51456 77.51457 l -5.6667,-0.80621 -5.6667,-0.80622 L 1646,256.75319 1623.3333,253.42302 1606,251.94746 1588.6666,250.4719 1572.3333,251.39631 1556,252.32074 V 179.4937 106.66666 h -36.6667 -36.6667 V 57.999998 9.333333 h 262 262 v 48.666665 48.666662 h -36.657 -36.6571 l -0.3429,87.52225 -0.343,87.52225 -10.6666,3.1127 -10.6667,3.11269 -2.6667,-0.14632 L 1906,287.64391 Z M 2029.3333,131.33333 V 9.333333 H 2132.6666 2236 v 48.666665 48.666662 h -41.3334 -41.3333 v 44 44 l 37.6667,0.0405 37.6666,0.0405 -2,1.15768 -2,1.15768 -97.0461,28.1351 -97.0461,28.13511 h -0.6206 -0.6205 v -122 z m 291.4233,88.33333 -0.8473,-9.66667 -0.6999,-6 -0.6998,-6 24.4118,-4.3574 24.4119,-4.3574 2.1833,0.0241 2.1834,0.024 1.5893,13.66666 1.5895,13.66667 0.2272,1.96328 0.2273,1.96326 -23.3333,4.28271 -23.3334,4.28269 -3.5313,0.0873 -3.5313,0.0873 -0.8474,-9.66667 z m 141.5767,-1.98005 -6.3333,-0.49939 -0.016,-0.26028 -0.016,-0.26028 -1.9671,-22 -1.9671,-22 -0.016,-2.10464 -0.016,-2.10465 13.363,-3.79912 13.3629,-3.79911 1.214,1.23709 1.2141,1.2371 3.5966,10.66666 3.5966,10.66667 0.013,10.66667 0.013,10.66666 -1.6123,3.99756 -1.6122,3.99756 -2.1139,2.33578 -2.1139,2.33577 -6.1266,-0.24033 -6.1267,-0.24034 -6.3333,-0.49938 z M 2273.3694,76.999997 2273.3333,9.333333 h 51.9324 51.9324 l 14.8072,45.666665 14.8072,45.666662 1.9271,5.90419 1.927,5.90418 V 114.23751 116 h -1.7466 -1.7467 l -20.9317,6.71496 -20.9319,6.71497 -19.8687,-9.29257 -19.8686,-9.29257 -16.746,6.52919 -16.7459,6.52919 -5.0403,5.67274 -5.0402,5.67274 -4.2972,4.70901 -4.2974,4.709 z"
         id="path98"
         sodipodi:nodetypes="ccccccccccccccccccccccccccccccccccccccccccccccccccccccccccccccccccccccccccccccccccccccccccccccccccccccccccccccccccccccccccccccccccccccccccccccccccccccccccccccccccccccccccccccccccccccccccccccccccccccccccccccccccccccccccccccccccccccccccccccccccccccccccccccccccccccccccccccccccccccccccccccccccccccccccccccccccccccccccccccccccccccccccccccccccccccccccccccccccccccccccccccccccccccccccccccccccccccccccccccccccccccccccccccccccccccccccccccccccccccccccccccccccccccccccccccccccccccccccccccccccccccccccccccccccccccccccccccccccccccccccccccccccccccccccccccccccccccccccccccccccccccccccccccccccccccccccccccccccccccccccccccccccccccccccccccccccccccccccccccccccccccccccccccccccccccccccccccccccccccccccccccccccccccccccccccccccccccccccccccccccccccccccccccccccccccccccccccccccccccccc" />
    </g>
  </g>
</svg>
