<?xml version="1.0" encoding="UTF-8" standalone="no"?>
<svg
   xmlns:osb="http://www.openswatchbook.org/uri/2009/osb"
   xmlns:dc="http://purl.org/dc/elements/1.1/"
   xmlns:cc="http://creativecommons.org/ns#"
   xmlns:rdf="http://www.w3.org/1999/02/22-rdf-syntax-ns#"
   xmlns:svg="http://www.w3.org/2000/svg"
   xmlns="http://www.w3.org/2000/svg"
   xmlns:sodipodi="http://sodipodi.sourceforge.net/DTD/sodipodi-0.dtd"
   xmlns:inkscape="http://www.inkscape.org/namespaces/inkscape"
   width="2000.0"
   height="1128.0"
   background="#FFFFFF"
   version="1.1"
   id="svg1087"
   sodipodi:docname="stage1_oob_r.svg"
   inkscape:version="1.0.1 (3bc2e813f5, 2020-09-07, custom)">
  <sodipodi:namedview
     pagecolor="#ffffff"
     bordercolor="#666666"
     borderopacity="1"
     objecttolerance="10"
     gridtolerance="10"
     guidetolerance="10"
     inkscape:pageopacity="0"
     inkscape:pageshadow="2"
     inkscape:window-width="1920"
     inkscape:window-height="1051"
     id="namedview1282"
     showgrid="false"
     inkscape:zoom="0.6245"
     inkscape:cx="884.3735"
     inkscape:cy="453.07725"
     inkscape:window-x="0"
     inkscape:window-y="29"
     inkscape:window-maximized="1"
     inkscape:current-layer="svg1087" />
  <metadata
     id="metadata1093">
    <rdf:RDF>
      <cc:Work
         rdf:about="">
        <dc:format>image/svg+xml</dc:format>
        <dc:type
           rdf:resource="http://purl.org/dc/dcmitype/StillImage" />
        <dc:title></dc:title>
      </cc:Work>
    </rdf:RDF>
  </metadata>
  <defs
     id="defs1091">
    <linearGradient
       inkscape:collect="always"
       id="linearGradient1302"
       osb:paint="gradient">
      <stop
         style="stop-color:#000000;stop-opacity:1;"
         offset="0"
         id="stop1298" />
      <stop
         style="stop-color:#000000;stop-opacity:0;"
         offset="1"
         id="stop1300" />
    </linearGradient>
  </defs>
  <g
     type="COMPO"
     id="c_0">
    <path
       rough-pts="1497.571,284.10046 1496.4493,292.43396 1493.2848,299.92566 1488.3777,306.27533 1482.0278,311.18265 1474.5361,314.34723 1466.2026,315.46884 1457.8689,314.34723 1450.3772,311.18262 1444.0277,306.2754 1439.1204,299.9257 1435.9558,292.43396 1434.8342,284.10046 1435.9557,275.76694 1439.1204,268.2752 1444.0278,261.92557 1450.3774,257.01828 1457.8691,253.85367 1466.2026,252.73209 1474.5361,253.85367 1482.0277,257.01825 1488.3776,261.92557 1493.2849,268.27524 1496.4495,275.76697 "
       id="h_0"
       stroke-linecap="round"
       stroke-linejoin="round"
       path-type="area"
       d="M1497.571 284.10046 C1497.571 301.40903,  1483.5112 315.46884,  1466.2026 315.46884C1448.894 315.46884,  1434.8342 301.40903,  1434.8342 284.10046C1434.8342 266.7919,  1448.894 252.73209,  1466.2026 252.73209C1483.5112 252.73209,  1497.571 266.7919,  1497.571 284.10046"
       fill-opacity="0.0" />
    <ellipse
       rx="31.368383"
       cx="1466.2026"
       average="1466.2026,284.10046"
       cy="284.10046"
       transform="matrix(1.0,0.0,-0.0,1.0,0.0,0.0)"
       sc="0.0,-31.368383"
       id="b_0"
       stroke-linecap="round"
       stroke-linejoin="round"
       ry="31.368383"
       pc="31.368383,0.0"
       stroke-opacity="1.0"
       stroke-width="3.0"
       fill="none"
       stroke="#ff0000" />
  </g>
  <g
     type="COMPO"
     id="c_1">
    <path
       rough-pts="1466.0503,567.3365 1474.3838,568.45807 1481.8755,571.6226 1488.2252,576.52997 1493.1326,582.87964 1496.2971,590.37134 1497.4187,598.7049 1457.8451,621.8681 1450.2249,625.78705 1443.8754,620.8799 1438.9681,614.53015 1435.8035,607.0384 1434.6819,598.7049 1435.8033,590.3714 1438.968,582.8796 1443.8755,576.52997 1450.2251,571.6227 1457.7168,568.45807 "
       id="h_1"
       stroke-linecap="round"
       stroke-linejoin="round"
       path-type="area"
       d="M1466.0503 567.3365 C1483.3589 567.3365,  1497.4187 581.3963,  1497.4187 598.7049L1457.8451 621.8681 C1443.406 623.95764,  1434.6819 612.33923,  1434.6819 598.7049C1434.6819 581.3963,  1448.7417 567.3365,  1466.0503 567.3365"
       fill-opacity="0.0" />
    <path
       rough-pts="1466.0503,630.0733 1457.7167,628.9516 1457.8451,621.8681 1497.4187,598.7049 1496.2969,607.0383 1493.1324,614.53015 1488.2253,620.8798 1481.8755,625.7871 1474.3838,628.95166 "
       id="h_3"
       stroke-linecap="round"
       stroke-linejoin="round"
       path-type="area"
       d="M1466.0503 630.0733 C1462.376 630.0733,  1458.8481 629.4397,  1455.5701 628.27594L1497.4187 598.7049 C1497.4187 616.0135,  1483.3589 630.0733,  1466.0503 630.0733"
       fill-opacity="0.0" />
    <ellipse
       rx="31.368383"
       cx="1466.0503"
       average="1466.0503,598.7049"
       cy="598.7049"
       transform="matrix(1.0,0.0,-0.0,1.0,0.0,0.0)"
       sc="0.0,-31.368383"
       id="b_1"
       stroke-linecap="round"
       stroke-linejoin="round"
       ry="31.368383"
       pc="31.368383,0.0"
       stroke-opacity="1.0"
       stroke-width="3.0"
       fill="none"
       stroke="#ff0000" />
    <line
       y1="579.1736"
       x1="1530.7875"
       y2="657.0049"
       x2="1397.8148"
       id="n_52"
       stroke-linecap="round"
       stroke-opacity="1.0"
       stroke-width="3.0"
       fill="none"
       stroke="#ff0000" />
  </g>
  <g
     type="COMPO"
     id="c_2">
    <path
       rough-pts="1497.5289,940.036 1496.4072,948.36945 1493.2426,955.86127 1488.3354,962.21094 1481.9858,967.1183 1474.4939,970.2828 1466.1605,971.4044 1457.8269,970.2828 1450.3351,967.1181 1443.9856,962.21094 1439.0782,955.8612 1435.9136,948.3695 1434.7921,940.036 1435.9136,931.7024 1439.0781,924.21063 1443.9856,917.8611 1450.3352,912.9538 1457.8269,909.7892 1466.1605,908.6676 1474.494,909.7891 1481.9855,912.95374 1488.3354,917.8611 1493.2427,924.2107 1496.4072,931.70245 "
       id="h_4"
       stroke-linecap="round"
       stroke-linejoin="round"
       path-type="area"
       d="M1497.5289 940.036 C1497.5289 957.3446,  1483.4691 971.4044,  1466.1605 971.4044C1448.8519 971.4044,  1434.7921 957.3446,  1434.7921 940.036C1434.7921 922.7274,  1448.8519 908.6676,  1466.1605 908.6676C1483.4691 908.6676,  1497.5289 922.7274,  1497.5289 940.036"
       fill-opacity="0.0" />
    <ellipse
       rx="31.368383"
       cx="1466.1605"
       average="1466.1605,940.036"
       cy="940.036"
       transform="matrix(1.0,0.0,-0.0,1.0,0.0,0.0)"
       sc="0.0,-31.368383"
       id="b_2"
       stroke-linecap="round"
       stroke-linejoin="round"
       ry="31.368383"
       pc="31.368383,0.0"
       stroke-opacity="1.0"
       stroke-width="3.0"
       fill="none"
       stroke="#ff0000" />
  </g>
  <g
     type="COMPO"
     id="c_3">
    <path
       rough-pts="1048.8584,433.82346 1049.9799,425.4899 1053.1444,417.99814 1058.0519,411.64856 1064.4016,406.74127 1071.8933,403.57666 1080.2268,402.45508 1088.5602,403.57666 1096.0519,406.7412 1102.4017,411.64856 1107.3091,417.99823 1110.4736,425.48993 1111.5952,433.82346 1110.4736,442.1569 1107.309,449.64865 1102.4017,455.99835 1096.0521,460.9056 1088.5603,464.07022 1080.2268,465.19183 1071.8932,464.07022 1064.4014,460.90558 1058.0519,455.99835 1053.1445,449.64868 1049.98,442.15692 "
       id="h_5"
       stroke-linecap="round"
       stroke-linejoin="round"
       path-type="area"
       d="M1048.8584 433.82346 C1048.8584 416.5149,  1062.9182 402.45508,  1080.2268 402.45508C1097.5354 402.45508,  1111.5952 416.5149,  1111.5952 433.82346C1111.5952 451.13202,  1097.5354 465.19183,  1080.2268 465.19183C1062.9182 465.19183,  1048.8584 451.13202,  1048.8584 433.82346"
       fill-opacity="0.0" />
    <ellipse
       rx="31.368383"
       cx="1080.2268"
       average="1080.2268,433.82346"
       cy="433.82346"
       transform="matrix(1.0,0.0,-0.0,1.0,0.0,0.0)"
       sc="0.0,-31.368383"
       id="b_3"
       stroke-linecap="round"
       stroke-linejoin="round"
       ry="31.368383"
       pc="31.368383,0.0"
       stroke-opacity="1.0"
       stroke-width="3.0"
       fill="none"
       stroke="#ff0000" />
  </g>
  <g
     type="COMPO"
     id="c_4">
    <path
       rough-pts="1049.4812,790.9779 1050.6028,782.64435 1053.7673,775.1526 1058.6747,768.803 1065.0244,763.8957 1072.5161,760.7311 1080.8496,759.6095 1089.1831,760.731 1096.6747,763.8956 1103.0245,768.803 1107.9319,775.15265 1111.0964,782.6444 1112.218,790.9779 1111.0963,799.31134 1107.9318,806.8031 1103.0245,813.15283 1096.6748,818.0601 1089.1831,821.22473 1080.8496,822.3463 1072.516,821.2246 1065.0242,818.06 1058.6747,813.15283 1053.7673,806.80316 1050.6028,799.3114 "
       id="h_6"
       stroke-linecap="round"
       stroke-linejoin="round"
       path-type="area"
       d="M1049.4812 790.9779 C1049.4812 773.6693,  1063.541 759.6095,  1080.8496 759.6095C1098.1582 759.6095,  1112.218 773.6693,  1112.218 790.9779C1112.218 808.2865,  1098.1582 822.3463,  1080.8496 822.3463C1063.541 822.3463,  1049.4812 808.2865,  1049.4812 790.9779"
       fill-opacity="0.0" />
    <ellipse
       rx="31.368383"
       cx="1080.8496"
       average="1080.8496,790.9779"
       cy="790.9779"
       transform="matrix(1.0,0.0,-0.0,1.0,0.0,0.0)"
       sc="0.0,-31.368383"
       id="b_4"
       stroke-linecap="round"
       stroke-linejoin="round"
       ry="31.368383"
       pc="31.368383,0.0"
       stroke-opacity="1.0"
       stroke-width="3.0"
       fill="none"
       stroke="#ff0000" />
  </g>
  <g
     type="COMPO"
     id="c_5">
    <path
       rough-pts="630.83624,564.0334 631.95776,555.6998 635.12244,548.20807 640.0297,541.85846 646.3794,536.9512 653.8711,533.78656 662.20465,532.665 670.53815,533.7865 678.0298,536.9511 684.37964,541.85846 689.28687,548.2081 692.4514,555.6998 693.57306,564.0334 692.4514,572.3668 689.28674,579.8586 684.3796,586.2083 678.0299,591.1156 670.53815,594.28015 662.20465,595.4018 653.8711,594.28015 646.37933,591.11554 640.0297,586.20825 635.12244,579.85864 631.9578,572.3669 "
       id="h_7"
       stroke-linecap="round"
       stroke-linejoin="round"
       path-type="area"
       d="M630.83624 564.0334 C630.83624 546.7248,  644.89606 532.665,  662.20465 532.665C679.51324 532.665,  693.57306 546.7248,  693.57306 564.0334C693.57306 581.342,  679.51324 595.4018,  662.20465 595.4018C644.89606 595.4018,  630.83624 581.342,  630.83624 564.0334"
       fill-opacity="0.0" />
    <ellipse
       rx="31.368383"
       cx="662.20465"
       average="662.20465,564.0334"
       cy="564.0334"
       transform="matrix(1.0,0.0,-0.0,1.0,0.0,0.0)"
       sc="0.0,-31.368383"
       id="b_5"
       stroke-linecap="round"
       stroke-linejoin="round"
       ry="31.368383"
       pc="31.368383,0.0"
       stroke-opacity="1.0"
       stroke-width="3.0"
       fill="none"
       stroke="#bb11dd" />
  </g>
  <path
     start-point="729.6662,506.69043"
     middle-point="654.31494,551.72253"
     id="path1064"
     stroke-linecap="round"
     end-point="598.821,608.0127"
     stroke-linejoin="round"
     d="M729.6662 506.69043 C675.6599 529.8473,  631.0096 565.77826,  598.821 608.0127"
     path-type="circle-arc"
     circle-center="859.5124,809.5171"
     stroke-opacity="1.0"
     stroke-width="3.0"
     fill="none"
     stroke="#bb11dd" />
  <path
     start-point="564.8686,482.57874"
     middle-point="652.7193,538.60297"
     id="path1066"
     stroke-linecap="round"
     end-point="723.90405,622.19604"
     stroke-linejoin="round"
     d="M564.8686 482.57874 C633.6744 513.53436,  688.0537 563.47284,  723.90405 622.19604"
     path-type="circle-arc"
     circle-center="416.8623,811.55566"
     stroke-opacity="1.0"
     stroke-width="3.0"
     fill="none"
     stroke="#bb11dd" />
  <g
     type="COMPO"
     id="c_6">
    <path
       start-point="1384.6903,220.54132"
       middle-point="1475.0232,282.4162"
       id="path1068"
       stroke-linecap="round"
       end-point="1555.6047,370.7962"
       stroke-linejoin="round"
       d="M1384.6903 220.54132 C1455.8474 258.5143,  1514.0065 311.38858,  1555.6047 370.7962"
       path-type="circle-arc"
       circle-center="1150.6637,659.08044"
       stroke-opacity="1.0"
       stroke-width="3.0"
       fill="none"
       stroke="#ff0000" />
    <line
       y1="234.55792"
       x1="1546.3466"
       y2="343.7697"
       x2="1383.5879"
       id="n_53"
       stroke-linecap="round"
       stroke-opacity="1.0"
       stroke-width="3.0"
       fill="none"
       stroke="#ff0000" />
  </g>
  <path
     start-point="1382.7401,552.609"
     middle-point="1458.5345,583.19183"
     id="path1072"
     stroke-linecap="round"
     end-point="1528.4783,648.5239"
     stroke-linejoin="round"
     d="M1382.7401 552.609 C1443.9972 565.9391,  1494.7991 601.3998,  1528.4783 648.5239"
     path-type="circle-arc"
     circle-center="1331.1533,789.67126"
     stroke-opacity="1.0"
     stroke-width="3.0"
     fill="none"
     stroke="#ff0000" />
  <line
     y1="887.0063"
     x1="1533.1875"
     y2="993.47003"
     x2="1400.392"
     id="n_54"
     stroke-linecap="round"
     stroke-opacity="1.0"
     stroke-width="3.0"
     fill="none"
     stroke="#ff0000" />
  <path
     start-point="1385.3109,868.27716"
     middle-point="1464.3854,924.03546"
     id="path1075"
     stroke-linecap="round"
     end-point="1515.7129,1004.1714"
     stroke-linejoin="round"
     d="M1385.3109 868.27716 C1447.2806 895.8813,  1492.4719 945.734,  1515.7129 1004.1714"
     path-type="circle-arc"
     circle-center="1283.7728,1096.2244"
     stroke-opacity="1.0"
     stroke-width="3.0"
     fill="none"
     stroke="#ff0000" />
  <g
     type="COMPO"
     id="c_8"
     transform="matrix(0.61178622,0,0,1,647.0282,3.1269645)"
     style="fill:none;fill-opacity:1">
    <path
       rough-pts="1044.3396,980.0072 993.2754,932.9011 958.9318,880.8147 937.88074,824.2384 926.69324,763.6621 921.941,699.57654 920.1955,632.47174 915.0816,506.79214 913.8131,393.00705 929.4654,294.11554 975.1133,213.11661 1063.8315,153.00941 1208.6959,116.79302 1271.3564,115.97156 1364.012,124.254 1469.0476,141.051 1568.8475,165.77309 1645.7966,197.8309 1682.2799,236.6351 1690.2921,298.314 1686.6674,359.1908 1675.9222,419.6029 1662.5719,479.88757 1651.1327,540.38214 1646.1204,601.42395 1647.2317,662.5674 1648.7938,721.2077 1647.3252,777.8254 1639.3433,832.90076 1621.366,886.9142 1589.9117,940.3463 1557.2135,980.4772 1530.49,1007.8372 1504.5563,1025.612 1474.2263,1036.9872 1434.3152,1045.1484 1379.6373,1053.2812 1318.1934,1059.5569 1259.9348,1059.5924 1204.1411,1052.5219 1150.0911,1037.4784 1097.0642,1013.5956 "
       id="h_9"
       stroke-linecap="round"
       stroke-linejoin="round"
       path-type="area"
       d="M 1044.3396,980.0072 C 923.2047,891.10254 922.96545,769.3735 920.1955,632.47174 914.839,371.21756 854.1049,163.3356 1208.6959,116.79302 c 83.5825,-11.13975 452.8272,35.88029 473.584,119.84208 30.6716,124.3848 -35.5723,241.93314 -36.1595,364.78885 -0.5496,125.11041 22.4985,232.31935 -56.2087,338.92235 -74.828,95.1566 -82.6951,94.5737 -210.2744,112.9349 -126.5534,18.2136 -229.6705,4.1862 -335.2977,-73.274"
       fill-opacity="0"
       style="fill:none;fill-opacity:1" />
    <path
       id="d_1"
       stroke-linecap="round"
       stroke-linejoin="round"
       d="m 1589.9117,940.3463 c -74.828,95.1566 -82.6951,94.5737 -210.2744,112.9349 -126.5534,18.2136 -229.6705,4.1862 -335.2977,-73.274 C 923.2047,891.10254 922.96545,769.3735 920.1955,632.47174 914.839,371.21756 854.1049,163.3356 1208.6959,116.79302 c 83.5825,-11.13975 452.8272,35.88029 473.584,119.84208 30.6716,124.3848 -35.5723,241.93314 -36.1595,364.78885 -0.5496,125.11041 22.4985,232.31935 -56.2087,338.92235"
       stroke-opacity="1"
       stroke-width="3"
       fill="none"
       stroke="#ff8800"
       style="fill:none;fill-opacity:1" />
  </g>
  <text
     width="554"
     font-family="Default"
     y="-108.23537"
     gravity="17"
     font-size="69.3px"
     id="m_1"
     x="800.44177"
     boxheight="347"
     font-name="Default-Regular"
     fill="#ff8800"
     fill-opacity="1"
     stroke="#ff8800"><tspan
       y="77.659157"
       text-anchor="middle"
       x="1077.4418"
       id="m_1_0">yesgo1</tspan></text>
  <g
     type="COMPO"
     id="c_8-3"
     transform="matrix(0.54427489,0,0,1,394.74232,-10.627561)">
    <path
       rough-pts="1044.3396,980.0072 993.2754,932.9011 958.9318,880.8147 937.88074,824.2384 926.69324,763.6621 921.941,699.57654 920.1955,632.47174 915.0816,506.79214 913.8131,393.00705 929.4654,294.11554 975.1133,213.11661 1063.8315,153.00941 1208.6959,116.79302 1271.3564,115.97156 1364.012,124.254 1469.0476,141.051 1568.8475,165.77309 1645.7966,197.8309 1682.2799,236.6351 1690.2921,298.314 1686.6674,359.1908 1675.9222,419.6029 1662.5719,479.88757 1651.1327,540.38214 1646.1204,601.42395 1647.2317,662.5674 1648.7938,721.2077 1647.3252,777.8254 1639.3433,832.90076 1621.366,886.9142 1589.9117,940.3463 1557.2135,980.4772 1530.49,1007.8372 1504.5563,1025.612 1474.2263,1036.9872 1434.3152,1045.1484 1379.6373,1053.2812 1318.1934,1059.5569 1259.9348,1059.5924 1204.1411,1052.5219 1150.0911,1037.4784 1097.0642,1013.5956 "
       id="h_9-6"
       stroke-linecap="round"
       stroke-linejoin="round"
       path-type="area"
       d="M 1044.3396,980.0072 C 923.2047,891.10254 922.96545,769.3735 920.1955,632.47174 914.839,371.21756 854.1049,163.3356 1208.6959,116.79302 c 83.5825,-11.13975 452.8272,35.88029 473.584,119.84208 30.6716,124.3848 -35.5723,241.93314 -36.1595,364.78885 -0.5496,125.11041 22.4985,232.31935 -56.2087,338.92235 -74.828,95.1566 -82.6951,94.5737 -210.2744,112.9349 -126.5534,18.2136 -229.6705,4.1862 -335.2977,-73.274"
       fill-opacity="0" />
    <path
       id="d_1-7"
       stroke-linecap="round"
       stroke-linejoin="round"
       d="m 1589.9117,940.3463 c -74.828,95.1566 -82.6951,94.5737 -210.2744,112.9349 -126.5534,18.2136 -229.6705,4.1862 -335.2977,-73.274 C 923.2047,891.10254 922.96545,769.3735 920.1955,632.47174 914.839,371.21756 854.1049,163.3356 1208.6959,116.79302 c 83.5825,-11.13975 452.8272,35.88029 473.584,119.84208 30.6716,124.3848 -35.5723,241.93314 -36.1595,364.78885 -0.5496,125.11041 22.4985,232.31935 -56.2087,338.92235"
       stroke-opacity="1"
       stroke-width="3"
       fill="none"
       stroke="#ff8800" />
  </g>
  <text
     width="554"
     font-family="Default"
     y="-103.17339"
     gravity="17"
     font-size="69.3px"
     id="m_1-5"
     x="1220.1224"
     boxheight="347"
     font-name="Default-Regular"
     fill="#ff8800"
     fill-opacity="1"
     stroke="#ff8800"><tspan
       y="82.72113"
       text-anchor="middle"
       x="1497.1224"
       id="m_1_0-3">yesgo2</tspan></text>
</svg>
