<svg xmlns="http://www.w3.org/2000/svg" xmlns:xlink="http://www.w3.org/1999/xlink" width="2000.0" height="1128.0" background="#FFFFFF"><g type="COMPO" id="c_0"><path rough-pts="1434.8342,284.10046 1435.9557,275.76694 1439.1204,268.2752 1444.0278,261.92557 1450.3774,257.01828 1457.8691,253.85367 1466.2026,252.73209 1474.5361,253.85367 1482.0277,257.01825 1488.3776,261.92557 1493.2849,268.27524 1496.4495,275.76697 1497.571,284.10046 1496.4493,292.43396 1493.2848,299.92566 1488.3777,306.27533 1482.0278,311.18265 1474.5361,314.34723 1466.2026,315.46884 1457.8689,314.34723 1450.3772,311.18262 1444.0277,306.2754 1439.1204,299.9257 1435.9558,292.43396 " id="h_0" stroke-linecap="round" stroke-linejoin="round" path-type="area" d="M1434.8342 284.10046 C1434.8342 266.7919,  1448.894 252.73209,  1466.2026 252.73209C1483.5112 252.73209,  1497.571 266.7919,  1497.571 284.10046C1497.571 301.40903,  1483.5112 315.46884,  1466.2026 315.46884C1448.894 315.46884,  1434.8342 301.40903,  1434.8342 284.10046" fill-opacity="0.0"/><ellipse rx="31.368383" cx="1466.2026" average="1466.2026,284.10046" cy="284.10046" transform="matrix(1.0,0.0,-0.0,1.0,0.0,0.0)" sc="0.0,-31.368383" id="b_0" stroke-linecap="round" stroke-linejoin="round" ry="31.368383" pc="31.368383,0.0" stroke-opacity="1.0" stroke-width="3.0" fill="none" stroke="#ff0000"/></g><g type="COMPO" id="c_1"><path rough-pts="1497.4187,598.7049 1496.2969,607.0383 1493.1324,614.53015 1488.2253,620.8798 1481.8755,625.7871 1474.3838,628.95166 1466.0503,630.0733 1457.7167,628.9516 1450.2249,625.78705 1443.8754,620.8799 1438.9681,614.53015 1435.8035,607.0384 1434.6819,598.7049 1435.8033,590.3714 1438.968,582.8796 1443.8755,576.52997 1450.2251,571.6227 1457.7168,568.45807 1466.0503,567.3365 1474.3838,568.45807 1481.8755,571.6226 1488.2252,576.52997 1493.1326,582.87964 1496.2971,590.37134 " id="h_1" stroke-linecap="round" stroke-linejoin="round" path-type="area" d="M1497.4187 598.7049 C1497.4187 616.0135,  1483.3589 630.0733,  1466.0503 630.0733C1448.7417 630.0733,  1434.6819 616.0135,  1434.6819 598.7049C1434.6819 581.3963,  1448.7417 567.3365,  1466.0503 567.3365C1483.3589 567.3365,  1497.4187 581.3963,  1497.4187 598.7049" fill-opacity="0.0"/><ellipse rx="31.368383" cx="1466.0503" average="1466.0503,598.7049" cy="598.7049" transform="matrix(1.0,0.0,-0.0,1.0,0.0,0.0)" sc="0.0,-31.368383" id="b_1" stroke-linecap="round" stroke-linejoin="round" ry="31.368383" pc="31.368383,0.0" stroke-opacity="1.0" stroke-width="3.0" fill="none" stroke="#ff0000"/></g><g type="COMPO" id="c_2"><path rough-pts="662.20465,595.4018 653.8711,594.28015 646.37933,591.11554 640.0297,586.20825 635.12244,579.85864 631.9578,572.3669 630.83624,564.0334 631.95776,555.6998 635.12244,548.20807 640.0297,541.85846 646.3794,536.9512 653.8711,533.78656 662.20465,532.665 670.53815,533.7865 678.0298,536.9511 684.37964,541.85846 689.28687,548.2081 692.4514,555.6998 693.57306,564.0334 692.4514,572.3668 689.28674,579.8586 684.3796,586.2083 678.0299,591.1156 670.53815,594.28015 " id="h_2" stroke-linecap="round" stroke-linejoin="round" path-type="area" d="M662.20465 595.4018 C644.89606 595.4018,  630.83624 581.342,  630.83624 564.0334C630.83624 546.7248,  644.89606 532.665,  662.20465 532.665C679.51324 532.665,  693.57306 546.7248,  693.57306 564.0334C693.57306 581.342,  679.51324 595.4018,  662.20465 595.4018" fill-opacity="0.0"/><ellipse rx="31.368383" cx="662.20465" average="662.20465,564.0334" cy="564.0334" transform="matrix(1.0,0.0,-0.0,1.0,0.0,0.0)" sc="0.0,-31.368383" id="b_2" stroke-linecap="round" stroke-linejoin="round" ry="31.368383" pc="31.368383,0.0" stroke-opacity="1.0" stroke-width="3.0" fill="none" stroke="#bb11dd"/></g><path start-point="729.6662,506.69043" middle-point="654.31494,551.72253" id="c_0" stroke-linecap="round" end-point="598.821,608.0127" stroke-linejoin="round" d="M729.6662 506.69043 C675.6599 529.8473,  631.0096 565.77826,  598.821 608.0127" path-type="circle-arc" circle-center="859.5124,809.5171" stroke-opacity="1.0" stroke-width="3.0" fill="none" stroke="#bb11dd"/><path start-point="564.8686,482.57874" middle-point="652.7193,538.60297" id="c_1" stroke-linecap="round" end-point="723.90405,622.19604" stroke-linejoin="round" d="M564.8686 482.57874 C633.6744 513.53436,  688.0537 563.47284,  723.90405 622.19604" path-type="circle-arc" circle-center="416.8623,811.55566" stroke-opacity="1.0" stroke-width="3.0" fill="none" stroke="#bb11dd"/><g type="COMPO" id="c_3"><path rough-pts="1466.1605,971.4044 1457.8269,970.2828 1450.3351,967.1181 1443.9856,962.21094 1439.0782,955.8612 1435.9136,948.3695 1434.7921,940.036 1435.9136,931.7024 1439.0781,924.21063 1443.9856,917.8611 1450.3352,912.9538 1457.8269,909.7892 1466.1605,908.6676 1474.494,909.7891 1481.9855,912.95374 1488.3354,917.8611 1493.2427,924.2107 1496.4072,931.70245 1497.5289,940.036 1496.4072,948.36945 1493.2426,955.86127 1488.3354,962.21094 1481.9858,967.1183 1474.4939,970.2828 " id="h_3" stroke-linecap="round" stroke-linejoin="round" path-type="area" d="M1466.1605 971.4044 C1448.8519 971.4044,  1434.7921 957.3446,  1434.7921 940.036C1434.7921 922.7274,  1448.8519 908.6676,  1466.1605 908.6676C1483.4691 908.6676,  1497.5289 922.7274,  1497.5289 940.036C1497.5289 957.3446,  1483.4691 971.4044,  1466.1605 971.4044" fill-opacity="0.0"/><ellipse rx="31.368383" cx="1466.1605" average="1466.1605,940.036" cy="940.036" transform="matrix(1.0,0.0,-0.0,1.0,0.0,0.0)" sc="0.0,-31.368383" id="b_3" stroke-linecap="round" stroke-linejoin="round" ry="31.368383" pc="31.368383,0.0" stroke-opacity="1.0" stroke-width="3.0" fill="none" stroke="#ff0000"/></g><g type="COMPO" id="c_4"><path rough-pts="962.4713,729.9009 963.8204,719.87646 967.62714,710.8647 973.5301,703.22675 981.1681,697.32385 990.1799,693.5171 1000.2042,692.16797 1010.22845,693.5171 1019.24023,697.3237 1026.8784,703.22675 1032.7812,710.86475 1036.5879,719.87646 1037.9371,729.9009 1036.588,739.9252 1032.7811,748.93695 1026.8783,756.575 1019.24036,762.47797 1010.2285,766.2846 1000.2042,767.6338 990.17975,766.28455 981.16797,762.4779 973.5301,756.575 967.6272,748.937 963.82043,739.92523 " id="h_4" stroke-linecap="round" stroke-linejoin="round" path-type="area" d="M962.4713 729.9009 C962.4713 709.08044,  979.3838 692.16797,  1000.2042 692.16797C1021.02466 692.16797,  1037.9371 709.08044,  1037.9371 729.9009C1037.9371 750.7213,  1021.02466 767.6338,  1000.2042 767.6338C979.3838 767.6338,  962.4713 750.7213,  962.4713 729.9009" fill-opacity="0.0"/><ellipse rx="37.7329" cx="1000.2042" average="1000.2042,729.9009" cy="729.9009" transform="matrix(1.0,0.0,-0.0,1.0,0.0,0.0)" sc="0.0,-37.7329" id="b_4" stroke-linecap="round" stroke-linejoin="round" ry="37.7329" pc="37.7329,0.0" stroke-opacity="1.0" stroke-width="3.0" fill="none" stroke="#bb11dd"/></g><g type="COMPO" id="c_5"><path rough-pts="1037.7686,381.1678 1036.4193,391.1921 1032.6125,400.20386 1026.7097,407.8419 1019.0718,413.74484 1013.28705,405.6493 986.70984,356.76068 1000.03564,343.43488 1010.0599,344.78403 1019.0716,348.59073 1026.7097,354.49368 1032.6128,362.13165 1036.4193,371.14343 " id="h_7" stroke-linecap="round" stroke-linejoin="round" path-type="area" d="M1037.7686 381.1678 C1037.7686 395.4759,  1029.7814 407.93842,  1018.0276 414.33478L986.70984 356.76068 L1000.03564 343.43488 C1020.8561 343.43488,  1037.7686 360.34738,  1037.7686 381.1678" fill-opacity="0.0"/><path rough-pts="964.6037,383.46875 986.70984,356.76068 1013.28705,405.6493 1010.05994,417.5515 1000.03564,418.9007 990.01117,417.55148 980.9994,413.7448 973.3615,407.8419 967.45856,400.20392 963.65186,391.1921 " id="h_9" stroke-linecap="round" stroke-linejoin="round" path-type="area" d="M964.6037 383.46875 L986.70984 356.76068 L1013.28705 405.6493 C1012.6779 417.24606,  1006.548 418.9007,  1000.03564 418.9007C980.03784 418.9007,  963.64526 403.29822,  962.38116 383.61655" fill-opacity="0.0"/><path rough-pts="962.30273,381.1678 963.65186,371.1434 967.4585,362.13162 973.3615,354.49368 980.9995,348.59073 986.70984,356.76068 964.6037,383.46875 " id="h_11" stroke-linecap="round" stroke-linejoin="round" path-type="area" d="M962.30273 381.1678 C962.30273 366.90714,  970.237 354.47983,  981.9269 348.06464L964.6037 383.46875 C962.32916 382.80695,  962.30273 381.99042,  962.30273 381.1678" fill-opacity="0.0"/><path rough-pts="1000.03546,343.43506 986.70984,356.76068 990.0112,344.78403 " id="h_5" stroke-linecap="round" stroke-linejoin="round" path-type="area" d="M1000.03546 343.43506 L986.70984 356.76068 C987.3041 345.1137,  993.4759 343.43488,  1000.03564 343.43488" fill-opacity="0.0"/><ellipse rx="37.7329" cx="1000.03564" average="1000.03564,381.1678" cy="381.1678" transform="matrix(1.0,0.0,-0.0,1.0,0.0,0.0)" sc="0.0,-37.7329" id="b_5" stroke-linecap="round" stroke-linejoin="round" ry="37.7329" pc="37.7329,0.0" stroke-opacity="1.0" stroke-width="3.0" fill="none" stroke="#bb11dd"/><line y1="446.65744" x1="908.6786" y2="270.87256" x2="1064.2568" id="n_79" stroke-linecap="round" stroke-opacity="1.0" stroke-width="3.0" fill="none" stroke="#bb11dd"/><line y1="299.284" x1="955.4639" y2="414.34274" x2="1018.01306" id="n_80" stroke-linecap="round" stroke-opacity="1.0" stroke-width="3.0" fill="none" stroke="#bb11dd"/></g><line y1="639.17236" x1="959.053" y2="821.96027" x2="1041.0529" id="n_81" stroke-linecap="round" stroke-opacity="1.0" stroke-width="3.0" fill="none" stroke="#bb11dd"/><path start-point="919.7287,797.2718" middle-point="984.79675,730.9646" id="c_2" stroke-linecap="round" end-point="1074.6864,693.4674" stroke-linejoin="round" d="M919.7287 797.2718 C956.6605 741.01685,  1013.31647 705.3992,  1074.6864 693.4674" path-type="circle-arc" circle-center="1120.0946,928.8137" stroke-opacity="1.0" stroke-width="3.0" fill="none" stroke="#bb11dd"/></svg>